<?xml version="1.0" standalone="no"?>
<!DOCTYPE svg PUBLIC "-//W3C//DTD SVG 20010904//EN"
 "http://www.w3.org/TR/2001/REC-SVG-20010904/DTD/svg10.dtd">
<svg version="1.0" xmlns="http://www.w3.org/2000/svg"
 width="618.000000pt" height="441.000000pt" viewBox="0 0 618.000000 441.000000"
 preserveAspectRatio="xMidYMid meet">

<g transform="translate(0.000000,441.000000) scale(0.100000,-0.100000)"
fill="#000000" stroke="none">
<path d="M1937 3804 l-987 -494 2 -509 3 -509 -35 18 c-237 121 -806 390 -817
386 -11 -5 -13 -102 -11 -558 l3 -552 1575 -744 1574 -745 993 497 993 496 -2
509 -3 509 35 -18 c237 -121 806 -390 817 -386 11 5 13 102 11 558 l-3 552
-1570 743 c-863 408 -1574 742 -1580 742 -5 0 -454 -223 -998 -495z m2163
-1149 c608 -296 1106 -538 1107 -539 3 -2 -1966 -913 -1984 -918 -6 -2 -515
242 -1132 542 l-1121 545 38 18 c20 10 469 217 997 461 641 296 965 441 975
436 8 -4 512 -249 1120 -545z"/>
</g>
</svg>
